<svg width="80" height="80" viewBox="0 0 80 80" fill="none" xmlns="http://www.w3.org/2000/svg">
<path d="M15.5556 10H2.22222C1 10 0 11.125 0 12.5V67.5C0 68.875 1 70 2.22222 70H15.5556C16.7778 70 17.7778 68.875 17.7778 67.5V12.5C17.7778 11.125 16.7778 10 15.5556 10ZM13.3333 25H4.44444V20H13.3333V25ZM37.7778 10H24.4444C23.2222 10 22.2222 11.125 22.2222 12.5V67.5C22.2222 68.875 23.2222 70 24.4444 70H37.7778C39 70 40 68.875 40 67.5V12.5C40 11.125 39 10 37.7778 10ZM35.5556 25H26.6667V20H35.5556V25Z" fill="white"/>
<path d="M53.1289 13.865L41.2222 20.615C40.6978 20.9149 40.2999 21.4357 40.1151 22.064C39.9303 22.6924 39.9736 23.3774 40.2356 23.97L60.2356 68.62C60.5022 69.21 60.9651 69.6576 61.5236 69.8655C62.0821 70.0733 62.691 70.0247 63.2178 69.73L75.1244 62.98C75.6489 62.6801 76.0468 62.1593 76.2315 61.5309C76.4163 60.9026 76.373 60.2176 76.1111 59.625L56.1111 14.975C55.8445 14.385 55.3816 13.9374 54.8231 13.7295C54.2645 13.5216 53.6557 13.5703 53.1289 13.865Z" fill="white"/>
<path d="M64.4444 67.5C64.4444 68.163 64.2103 68.7989 63.7936 69.2678C63.3768 69.7366 62.8116 70 62.2222 70C61.6329 70 61.0676 69.7366 60.6509 69.2678C60.2341 68.7989 60 68.163 60 67.5C60 66.837 60.2341 66.2011 60.6509 65.7322C61.0676 65.2634 61.6329 65 62.2222 65C62.8116 65 63.3768 65.2634 63.7936 65.7322C64.2103 66.2011 64.4444 66.837 64.4444 67.5Z" fill="white"/>
</svg>
