<svg width="60" height="60" viewBox="0 0 60 60" fill="none" xmlns="http://www.w3.org/2000/svg">
<path id="Vector" d="M23.2781 3.89993C18.7622 1.31284 12.4502 0.0455417 3.99967 0.00054879C3.2027 -0.0124435 2.42137 0.26641 1.75986 0.799923C1.21689 1.2403 0.772423 1.83402 0.465554 2.52887C0.158684 3.22372 -0.00118535 3.99841 6.61677e-06 4.78479V47.693C6.61677e-06 50.5936 1.71986 52.7817 3.99967 52.7817C12.8827 52.7817 21.7932 53.7775 27.1302 59.8306C27.2032 59.9138 27.295 59.9694 27.3941 59.9905C27.4933 60.0116 27.5954 59.9973 27.6878 59.9494C27.7802 59.9015 27.8588 59.822 27.9139 59.7209C27.969 59.6198 27.9981 59.5015 27.9977 59.3807V8.82215C27.9979 8.48104 27.9371 8.14385 27.8193 7.83336C27.7016 7.52288 27.5297 7.24634 27.3152 7.02244C26.0927 5.76839 24.7347 4.71807 23.2781 3.89993ZM58.2351 0.795423C57.5733 0.263238 56.7919 -0.0140582 55.9953 0.00054879C47.5448 0.0455417 41.2328 1.30684 36.7169 3.89993C35.2603 4.71659 33.902 5.76484 32.6785 7.01644C32.4645 7.24073 32.293 7.51738 32.1755 7.8278C32.058 8.13822 31.9973 8.47522 31.9973 8.81616V59.3777C31.9973 59.4938 32.0258 59.6073 32.0793 59.704C32.1328 59.8007 32.2089 59.8763 32.2981 59.9213C32.3873 59.9663 32.4855 59.9788 32.5806 59.957C32.6756 59.9353 32.7631 59.8803 32.8323 59.7991C36.0407 55.9747 41.6715 52.7772 56.0003 52.7787C57.0611 52.7787 58.0784 52.2731 58.8285 51.373C59.5786 50.473 60 49.2523 60 47.9795V4.78629C60.0015 3.99836 59.8412 3.22211 59.5334 2.52608C59.2256 1.83006 58.7797 1.23568 58.2351 0.795423Z" fill="white"/>
</svg>
