<svg width="714" height="575" viewBox="0 0 714 575" fill="none" xmlns="http://www.w3.org/2000/svg">
<g clip-path="url(#clip0_5_347)">
<path d="M259.563 435.794C257.403 430.627 257.166 424.859 258.894 419.533C260.622 414.207 264.201 409.673 268.984 406.751C270.577 405.784 269.121 403.278 267.52 404.25C262.033 407.521 257.938 412.687 256.01 418.769C254.082 424.852 254.455 431.429 257.058 437.256C257.79 438.964 260.29 437.491 259.563 435.794Z" fill="#3F3D56"/>
<path d="M260.393 439.689C256.48 432.769 257.401 424.488 258.808 417.004C260.277 409.192 262.203 401.26 260.537 393.315C259.781 389.458 257.992 385.877 255.361 382.953C254.094 381.579 252.046 383.631 253.31 385.001C258.23 390.337 258.801 398.077 258.003 404.951C257.061 413.058 254.393 420.959 254.725 429.198C254.811 433.377 255.896 437.475 257.888 441.151C258.089 441.469 258.406 441.696 258.771 441.785C259.137 441.874 259.523 441.818 259.848 441.628C260.173 441.439 260.411 441.131 260.513 440.769C260.615 440.407 260.572 440.02 260.393 439.689Z" fill="#3F3D56"/>
<path d="M281.391 461.788H232.076C230.922 461.786 229.816 461.328 229 460.514C228.185 459.7 227.726 458.595 227.724 457.444V442.982C227.729 439.266 229.209 435.703 231.841 433.075C234.474 430.448 238.042 428.97 241.765 428.965H248.998C249.382 428.965 249.751 428.812 250.023 428.541C250.295 428.269 250.448 427.901 250.448 427.517V420.76C250.449 420.12 250.704 419.507 251.157 419.054C251.61 418.602 252.225 418.347 252.866 418.346H260.601C261.242 418.347 261.857 418.602 262.31 419.054C262.763 419.507 263.018 420.12 263.019 420.76V427.517C263.019 427.901 263.172 428.269 263.444 428.541C263.716 428.812 264.085 428.965 264.469 428.965H271.702C275.425 428.97 278.993 430.448 281.625 433.075C284.258 435.703 285.738 439.266 285.742 442.982V457.444C285.741 458.595 285.282 459.7 284.467 460.514C283.651 461.328 282.545 461.786 281.391 461.788Z" fill="#629CF5"/>
<path d="M257.491 374.943C258.53 380.445 257.244 385.304 254.62 385.798C251.996 386.292 249.027 382.232 247.989 376.731C246.951 371.229 250.144 362.081 250.144 362.081C250.144 362.081 256.453 369.442 257.491 374.943Z" fill="#6FF5C4"/>
<path d="M277.405 400.537C274.117 405.072 269.698 407.481 267.535 405.918C265.372 404.355 266.284 399.411 269.572 394.877C272.86 390.342 281.71 386.368 281.71 386.368C281.71 386.368 280.693 396.003 277.405 400.537Z" fill="#6FF5C4"/>
<path d="M168.668 88.2628C166.509 83.0959 166.271 77.3283 167.999 72.0019C169.727 66.6756 173.306 62.1418 178.09 59.2197C179.683 58.2528 178.226 55.7472 176.626 56.719C171.139 59.9898 167.044 65.1555 165.116 71.2381C163.188 77.3207 163.56 83.8979 166.163 89.7246C166.895 91.433 169.395 89.9593 168.668 88.2628Z" fill="#3F3D56"/>
<path d="M169.498 92.1579C165.585 85.2378 166.506 76.9563 167.913 69.4729C169.383 61.6609 171.308 53.7291 169.642 45.7838C168.886 41.9263 167.098 38.3454 164.466 35.4219C163.199 34.0478 161.151 36.0998 162.415 37.4697C167.335 42.8053 167.906 50.5454 167.108 57.4194C166.166 65.5272 163.499 73.4277 163.83 81.6665C163.916 85.8454 165.001 89.9434 166.993 93.6197C167.194 93.9374 167.511 94.1648 167.877 94.2539C168.242 94.3429 168.628 94.2867 168.953 94.0971C169.278 93.9075 169.517 93.5993 169.618 93.2375C169.72 92.8757 169.677 92.4886 169.498 92.1579Z" fill="#3F3D56"/>
<path d="M190.496 114.257H141.181C140.027 114.255 138.921 113.797 138.106 112.983C137.29 112.168 136.831 111.064 136.83 109.912V95.4508C136.834 91.7346 138.315 88.1719 140.947 85.5442C143.579 82.9165 147.147 81.4384 150.87 81.4341H158.103C158.488 81.4337 158.856 81.281 159.128 81.0095C159.4 80.7381 159.553 80.37 159.553 79.9861V73.2285C159.554 72.5887 159.809 71.9752 160.262 71.5228C160.715 71.0703 161.33 70.8158 161.971 70.8151H169.707C170.348 70.8158 170.962 71.0703 171.415 71.5228C171.868 71.9752 172.123 72.5887 172.124 73.2285V79.9861C172.124 80.37 172.277 80.7381 172.549 81.0095C172.821 81.281 173.19 81.4337 173.574 81.4341H180.808C184.53 81.4384 188.099 82.9165 190.731 85.5442C193.363 88.1719 194.843 91.7346 194.848 95.4508V109.912C194.846 111.064 194.388 112.168 193.572 112.983C192.756 113.797 191.65 114.255 190.496 114.257Z" fill="#629CF5"/>
<path d="M166.597 27.4119C167.635 32.9133 166.35 37.7731 163.725 38.2667C161.101 38.7603 158.133 34.7008 157.094 29.1994C156.056 23.6981 159.249 14.5499 159.249 14.5499C159.249 14.5499 165.558 21.9106 166.597 27.4119Z" fill="#6FF5C4"/>
<path d="M186.51 53.0061C183.222 57.5408 178.803 59.9497 176.64 58.3865C174.477 56.8234 175.389 51.8801 178.677 47.3454C181.965 42.8107 190.815 38.837 190.815 38.837C190.815 38.837 189.798 48.4713 186.51 53.0061Z" fill="#6FF5C4"/>
<path d="M70.5926 263.405H30.947V277.886H70.5926V263.405Z" fill="#6FF5C4"/>
<path d="M70.5926 310.708H30.947V325.189H70.5926V310.708Z" fill="#6FF5C4"/>
<path d="M312.334 573.287H16.4426C12.0843 573.283 7.90599 571.552 4.82425 568.475C1.74251 565.399 0.00903621 561.227 0.00415039 556.876V17.2374C0.00903621 12.8863 1.74251 8.71493 4.82425 5.63829C7.90599 2.56165 12.0843 0.83105 16.4426 0.826172H312.334C316.692 0.83107 320.871 2.56167 323.952 5.63831C327.034 8.71494 328.767 12.8864 328.772 17.2374V556.876C328.767 561.227 327.034 565.399 323.952 568.475C320.871 571.552 316.692 573.283 312.334 573.287ZM16.4426 2.7569C12.5971 2.76124 8.91033 4.28825 6.19116 7.00292C3.47198 9.7176 1.94243 13.3982 1.93808 17.2374V556.876C1.94243 560.715 3.47198 564.396 6.19116 567.111C8.91033 569.825 12.5971 571.352 16.4426 571.357H312.334C316.179 571.352 319.866 569.825 322.585 567.111C325.305 564.396 326.834 560.715 326.838 556.876V17.2374C326.834 13.3982 325.305 9.7176 322.585 7.00292C319.866 4.28825 316.179 2.76124 312.334 2.7569H16.4426Z" fill="#3F3D56"/>
<path d="M327.805 112.28H0.97113V114.211H327.805V112.28Z" fill="#3F3D56"/>
<path d="M327.805 228.154H0.97113V230.085H327.805V228.154Z" fill="#3F3D56"/>
<path d="M327.805 344.028H0.97113V345.959H327.805V344.028Z" fill="#3F3D56"/>
<path d="M327.805 459.903H0.97113V461.834H327.805V459.903Z" fill="#3F3D56"/>
<path d="M67.6918 346.427H34.8149C33.5331 346.425 32.3042 345.916 31.3978 345.011C30.4914 344.106 29.9816 342.88 29.9801 341.6V247.959C29.9816 246.68 30.4914 245.453 31.3978 244.548C32.3042 243.643 33.5331 243.134 34.8149 243.133H67.6918C68.9736 243.134 70.2025 243.643 71.1089 244.548C72.0152 245.453 72.5251 246.68 72.5266 247.959V341.6C72.5251 342.88 72.0152 344.106 71.1089 345.011C70.2025 345.916 68.9736 346.425 67.6918 346.427ZM34.8149 245.063C34.0458 245.064 33.3085 245.37 32.7646 245.913C32.2208 246.456 31.9149 247.192 31.914 247.959V341.6C31.9149 342.368 32.2208 343.104 32.7646 343.647C33.3085 344.19 34.0458 344.495 34.8149 344.496H67.6918C68.4609 344.495 69.1982 344.19 69.742 343.647C70.2859 343.104 70.5918 342.368 70.5927 341.6V247.959C70.5918 247.192 70.2859 246.456 69.742 245.913C69.1982 245.37 68.4609 245.064 67.6918 245.063H34.8149Z" fill="#3F3D56"/>
<path d="M131.511 263.405H91.8658V277.886H131.511V263.405Z" fill="#6FF5C4"/>
<path d="M131.511 310.708H91.8658V325.189H131.511V310.708Z" fill="#6FF5C4"/>
<path d="M128.611 346.427H95.7337C94.4519 346.425 93.223 345.916 92.3166 345.011C91.4102 344.106 90.9003 342.88 90.8989 341.6V247.959C90.9003 246.68 91.4102 245.453 92.3166 244.548C93.223 243.643 94.4519 243.134 95.7337 243.133H128.611C129.892 243.134 131.121 243.643 132.028 244.548C132.934 245.453 133.444 246.68 133.445 247.959V341.6C133.444 342.88 132.934 344.106 132.028 345.011C131.121 345.916 129.892 346.425 128.611 346.427ZM95.7337 245.063C94.9646 245.064 94.2272 245.37 93.6834 245.913C93.1396 246.456 92.8337 247.192 92.8328 247.959V341.6C92.8337 342.368 93.1396 343.104 93.6834 343.647C94.2272 344.19 94.9646 344.495 95.7337 344.496H128.611C129.38 344.495 130.117 344.19 130.661 343.647C131.205 343.104 131.511 342.368 131.511 341.6V247.959C131.511 247.192 131.205 246.456 130.661 245.913C130.117 245.37 129.38 245.064 128.611 245.063H95.7337Z" fill="#3F3D56"/>
<path d="M228.208 146.596H188.562V161.077H228.208V146.596Z" fill="#6FF5C4"/>
<path d="M228.208 193.899H188.562V208.38H228.208V193.899Z" fill="#6FF5C4"/>
<path d="M225.307 229.618H192.43C191.148 229.616 189.92 229.107 189.013 228.202C188.107 227.297 187.597 226.07 187.595 224.791V131.15C187.597 129.871 188.107 128.644 189.013 127.739C189.92 126.834 191.148 126.325 192.43 126.324H225.307C226.589 126.325 227.818 126.834 228.724 127.739C229.631 128.644 230.14 129.871 230.142 131.15V224.791C230.14 226.07 229.631 227.297 228.724 228.202C227.818 229.107 226.589 229.616 225.307 229.618ZM192.43 128.254C191.661 128.255 190.924 128.561 190.38 129.104C189.836 129.646 189.53 130.383 189.529 131.15V224.791C189.53 225.559 189.836 226.295 190.38 226.838C190.924 227.381 191.661 227.686 192.43 227.687H225.307C226.076 227.686 226.814 227.381 227.357 226.838C227.901 226.295 228.207 225.559 228.208 224.791V131.15C228.207 130.383 227.901 129.646 227.357 129.103C226.814 128.561 226.076 128.255 225.307 128.254H192.43Z" fill="#3F3D56"/>
<path d="M289.127 146.596H249.481V161.077H289.127V146.596Z" fill="#6FF5C4"/>
<path d="M289.127 193.899H249.481V208.38H289.127V193.899Z" fill="#6FF5C4"/>
<path d="M286.226 229.618H253.349C252.067 229.616 250.838 229.107 249.932 228.202C249.026 227.297 248.516 226.07 248.514 224.791V131.15C248.516 129.871 249.026 128.644 249.932 127.739C250.838 126.834 252.067 126.325 253.349 126.324H286.226C287.508 126.325 288.737 126.834 289.643 127.739C290.549 128.644 291.059 129.871 291.061 131.15V224.791C291.059 226.07 290.549 227.297 289.643 228.202C288.737 229.107 287.508 229.616 286.226 229.618ZM253.349 128.254C252.58 128.255 251.843 128.561 251.299 129.103C250.755 129.646 250.449 130.383 250.448 131.15V224.791C250.449 225.559 250.755 226.295 251.299 226.838C251.843 227.381 252.58 227.686 253.349 227.687H286.226C286.995 227.686 287.732 227.381 288.276 226.838C288.82 226.295 289.126 225.559 289.127 224.791V131.15C289.126 130.383 288.82 129.646 288.276 129.103C287.732 128.561 286.995 128.255 286.226 128.254H253.349Z" fill="#3F3D56"/>
<path d="M180.14 254.757L143.028 268.68L148.13 282.235L185.242 268.313L180.14 254.757Z" fill="#6FF5C4"/>
<path d="M196.807 299.037L159.695 312.96L164.797 326.515L201.909 312.592L196.807 299.037Z" fill="#6FF5C4"/>
<path d="M174.197 345.348C173.214 345.346 172.254 345.046 171.446 344.486C170.639 343.927 170.02 343.135 169.674 342.216L136.681 254.561C136.231 253.362 136.276 252.035 136.806 250.87C137.336 249.704 138.306 248.796 139.506 248.345L170.282 236.799C170.876 236.576 171.509 236.472 172.143 236.493C172.778 236.514 173.402 236.66 173.98 236.922C174.558 237.184 175.079 237.557 175.513 238.02C175.947 238.483 176.285 239.027 176.508 239.62L209.501 327.276C209.951 328.474 209.906 329.802 209.376 330.967C208.846 332.132 207.875 333.04 206.676 333.492L175.9 345.037C175.356 345.242 174.779 345.348 174.197 345.348ZM171.984 238.42C171.635 238.42 171.289 238.484 170.962 238.607L140.186 250.152C139.467 250.423 138.884 250.968 138.566 251.667C138.248 252.366 138.221 253.163 138.491 253.882L171.484 341.538C171.618 341.894 171.821 342.22 172.081 342.498C172.342 342.775 172.654 342.999 173.001 343.156C173.348 343.313 173.722 343.401 174.103 343.413C174.484 343.426 174.863 343.364 175.22 343.23L205.996 331.685C206.715 331.414 207.298 330.869 207.616 330.17C207.934 329.47 207.961 328.674 207.691 327.955L174.698 240.299C174.49 239.748 174.119 239.273 173.634 238.937C173.149 238.602 172.574 238.421 171.984 238.42Z" fill="#3F3D56"/>
<path d="M46.6987 139.879L9.58679 153.802L14.6888 167.357L51.8008 153.434L46.6987 139.879Z" fill="#6FF5C4"/>
<path d="M63.3653 184.159L26.2534 198.081L31.3554 211.636L68.4674 197.714L63.3653 184.159Z" fill="#6FF5C4"/>
<path d="M40.7559 230.47C39.7726 230.468 38.8133 230.167 38.0053 229.608C37.1973 229.048 36.579 228.257 36.2326 227.338L3.23946 139.682C2.7901 138.484 2.83516 137.156 3.36475 135.991C3.89433 134.826 4.86521 133.918 6.06446 133.466L36.8405 121.921C37.4348 121.698 38.0673 121.594 38.7019 121.615C39.3365 121.636 39.9608 121.782 40.539 122.044C41.1172 122.305 41.638 122.679 42.0718 123.142C42.5056 123.604 42.8437 124.148 43.0669 124.742L76.06 212.397C76.5094 213.596 76.4644 214.923 75.9348 216.089C75.4052 217.254 74.4343 218.162 73.235 218.613L42.459 230.159C41.9147 230.364 41.3377 230.469 40.7559 230.47ZM38.5428 123.542C38.1936 123.542 37.8474 123.605 37.5207 123.728L6.74495 135.273C6.02533 135.544 5.44273 136.089 5.12495 136.789C4.80718 137.488 4.78015 138.284 5.04981 139.003L38.0429 226.659C38.1769 227.015 38.3798 227.342 38.6401 227.619C38.9003 227.897 39.2128 228.121 39.5597 228.278C39.9067 228.435 40.2812 228.522 40.662 228.535C41.0427 228.548 41.4222 228.485 41.7788 228.351L72.5546 216.806C73.2742 216.535 73.8568 215.99 74.1746 215.291C74.4923 214.592 74.5193 213.795 74.2497 213.076L41.2566 125.42C41.0487 124.869 40.6777 124.394 40.193 124.059C39.7083 123.723 39.1327 123.543 38.5428 123.542Z" fill="#3F3D56"/>
<path d="M606.291 242.167C622.847 242.167 636.267 228.769 636.267 212.241C636.267 195.713 622.847 182.315 606.291 182.315C589.736 182.315 576.316 195.713 576.316 212.241C576.316 228.769 589.736 242.167 606.291 242.167Z" fill="#629CF5"/>
<path d="M473.121 348.812C474.537 349.36 476.056 349.591 477.572 349.489C479.087 349.387 480.561 348.955 481.891 348.223C483.221 347.49 484.374 346.476 485.268 345.251C486.163 344.026 486.777 342.62 487.069 341.132L569.49 289.216L554.488 272.354L478.153 328.722C475.616 328.399 473.05 329.016 470.939 330.457C468.828 331.897 467.319 334.06 466.699 336.536C466.079 339.013 466.39 341.63 467.574 343.893C468.757 346.155 470.731 347.906 473.121 348.812Z" fill="#FFB8B8"/>
<path d="M552.283 303.018C551.553 303.02 550.835 302.838 550.194 302.49C549.553 302.142 549.01 301.638 548.615 301.026L539.07 286.219C538.468 285.284 538.247 284.154 538.454 283.062C538.66 281.97 539.278 280.999 540.181 280.347L572.119 257.301C573.669 256.183 575.428 255.386 577.292 254.958C579.155 254.53 581.086 254.48 582.969 254.81C584.853 255.14 586.651 255.844 588.257 256.88C589.863 257.916 591.245 259.263 592.32 260.841C593.396 262.42 594.144 264.198 594.519 266.07C594.894 267.942 594.89 269.87 594.505 271.74C594.121 273.61 593.365 275.384 592.282 276.958C591.199 278.531 589.811 279.871 588.2 280.9L554.618 302.336C553.921 302.782 553.11 303.019 552.283 303.018Z" fill="#629CF5"/>
<path d="M566.543 561.558L554.689 561.557L549.049 515.907L566.546 515.908L566.543 561.558Z" fill="#FFB8B8"/>
<path d="M546.221 558.176H569.084V572.547H531.826C531.826 570.66 532.198 568.791 532.922 567.047C533.645 565.304 534.705 563.72 536.042 562.385C537.379 561.051 538.966 559.992 540.712 559.27C542.459 558.547 544.331 558.176 546.221 558.176Z" fill="#629CF5"/>
<path d="M621.887 552.71L610.473 555.909L592.682 513.48L609.528 508.759L621.887 552.71Z" fill="#FFB8B8"/>
<path d="M601.405 554.938L623.417 548.769L627.307 562.605L591.436 572.658C590.925 570.841 590.778 568.941 591.002 567.067C591.227 565.194 591.819 563.382 592.744 561.737C593.67 560.091 594.911 558.644 596.397 557.477C597.883 556.311 599.585 555.448 601.405 554.938Z" fill="#629CF5"/>
<path d="M653.827 482.653L607.804 428.427L635.731 394.597C636.141 394.101 636.655 393.702 637.238 393.428C637.821 393.155 638.457 393.014 639.101 393.016C639.745 393.018 640.381 393.162 640.962 393.439C641.543 393.716 642.056 394.118 642.462 394.617L684.72 446.393L653.827 482.653Z" fill="#6FF5C4"/>
<path d="M609.661 428.831C610.339 427.611 611.18 426.49 612.161 425.497L638.818 398.518C639.863 397.455 641.27 396.824 642.759 396.751C645.805 396.607 650.8 396.915 652.193 400.251L616.204 429.647L609.661 428.831Z" fill="#F2F2F2"/>
<path d="M655.427 494.127C653.374 494.065 651.379 493.435 649.666 492.305L649.538 492.174L607.387 427.814L614.381 427.139L651.867 397.948C652.341 397.58 652.885 397.313 653.467 397.165C654.048 397.017 654.654 396.99 655.246 397.087C655.839 397.183 656.405 397.401 656.908 397.727C657.412 398.053 657.843 398.479 658.174 398.979L699.15 460.895C699.779 461.851 700.006 463.016 699.782 464.138C699.558 465.26 698.901 466.248 697.953 466.891L658.302 493.584C657.387 493.947 656.411 494.131 655.427 494.127Z" fill="#6FF5C4"/>
<path d="M640.519 450.101C640.122 450.101 639.732 450.005 639.381 449.819C639.031 449.634 638.732 449.365 638.51 449.036L633.668 441.856C633.31 441.324 633.179 440.673 633.302 440.045C633.424 439.417 633.792 438.863 634.323 438.505L659.166 421.808C659.698 421.452 660.35 421.321 660.979 421.443C661.608 421.566 662.162 421.932 662.521 422.462L667.363 429.643C667.721 430.175 667.852 430.826 667.729 431.454C667.606 432.082 667.239 432.636 666.708 432.994L641.865 449.691C641.467 449.958 640.999 450.101 640.519 450.101Z" fill="#3F3D56"/>
<path d="M547.173 554.654C545.851 554.649 544.578 554.151 543.605 553.257C542.632 552.364 542.029 551.139 541.914 549.824C539.805 525.897 529.221 405.308 528.06 380.955C526.769 353.897 549.326 311.091 549.554 310.662L549.71 310.368L560.859 311.758V313.053L571.471 314.299L592.007 316.284L597.887 388.028L600.486 436.685L624.911 536.062C625.188 537.163 625.02 538.328 624.443 539.306C623.867 540.284 622.928 540.996 621.83 541.289L600.573 547.076C599.468 547.372 598.29 547.224 597.294 546.663C596.297 546.101 595.561 545.172 595.243 544.075L575.229 473.886C575.132 473.546 574.914 473.254 574.616 473.063C574.318 472.873 573.961 472.798 573.611 472.852C573.262 472.906 572.944 473.086 572.718 473.358C572.492 473.629 572.373 473.974 572.384 474.327L574.501 542.767C574.512 543.47 574.379 544.167 574.11 544.817C573.841 545.466 573.442 546.054 572.937 546.544C568.065 551.112 555.19 553.551 547.95 554.599C547.693 554.636 547.433 554.654 547.173 554.654Z" fill="#629CF5"/>
<path d="M611.047 253.165C607.674 249.655 585.449 254.479 580.514 259.651L546.733 314.779L602.602 325.156L614.945 255.111L611.047 253.165Z" fill="#6FF5C4"/>
<path d="M596.404 393.227C595.2 393.228 594.005 393.029 592.867 392.639C589.621 391.527 585.643 390.364 581.043 389.184C560.898 384.012 553.785 367.454 559.903 339.969L560.058 339.271C565.803 313.2 576.631 288.512 591.926 266.615L594.295 263.218C597.155 259.119 601.158 255.949 605.808 254.103C610.458 252.257 615.548 251.816 620.447 252.834C629.511 254.701 634.378 257.406 634.913 260.874C635.961 267.68 615.714 349.948 606.961 385.003C606.374 387.354 605.016 389.441 603.102 390.932C601.189 392.422 598.831 393.23 596.404 393.227Z" fill="#629CF5"/>
<path d="M527.004 382.666C526.477 382.666 525.954 382.584 525.452 382.424L518.922 380.339C518.247 380.123 517.625 379.769 517.095 379.299C516.564 378.83 516.138 378.255 515.843 377.611C515.548 376.968 515.391 376.27 515.382 375.563C515.373 374.855 515.511 374.153 515.789 373.502L550.436 292.312C557.075 276.823 568.682 263.978 583.433 255.795C583.647 255.677 583.883 255.605 584.126 255.582C584.369 255.559 584.614 255.587 584.846 255.663C585.059 255.73 585.256 255.842 585.423 255.99C585.591 256.139 585.725 256.32 585.818 256.523C589.893 265.473 567.714 307.826 549.893 341.857C540.767 359.283 532.886 374.333 531.989 378.624C531.75 379.767 531.124 380.793 530.216 381.529C529.308 382.265 528.174 382.666 527.004 382.666Z" fill="#629CF5"/>
<path d="M634.197 401.166C635.414 400.259 636.417 399.097 637.135 397.761C637.854 396.426 638.27 394.949 638.355 393.435C638.44 391.922 638.192 390.408 637.627 389C637.063 387.593 636.196 386.326 635.088 385.289L634.813 287.996L612.534 291.728L619.821 386.239C618.199 388.212 617.359 390.711 617.46 393.262C617.561 395.812 618.595 398.237 620.367 400.077C622.139 401.917 624.526 403.045 627.075 403.245C629.624 403.446 632.158 402.706 634.197 401.166Z" fill="#FFB8B8"/>
<path d="M616.057 312.134C614.953 312.133 613.89 311.714 613.084 310.961C612.278 310.207 611.789 309.176 611.717 308.076L609.125 268.819C608.88 265.041 610.146 261.321 612.645 258.475C615.143 255.628 618.671 253.887 622.454 253.633C624.396 253.505 626.344 253.775 628.179 254.425C630.013 255.075 631.695 256.092 633.122 257.414C634.549 258.736 635.69 260.335 636.476 262.112C637.263 263.89 637.677 265.809 637.694 267.752L638.046 307.544C638.055 308.694 637.607 309.8 636.801 310.621C635.996 311.442 634.898 311.911 633.747 311.927L616.11 312.134L616.057 312.134Z" fill="#629CF5"/>
<path d="M600.117 243.69C613.233 243.69 623.866 233.074 623.866 219.979C623.866 206.884 613.233 196.269 600.117 196.269C587 196.269 576.367 206.884 576.367 219.979C576.367 233.074 587 243.69 600.117 243.69Z" fill="#FFB8B8"/>
<path d="M619.863 236.57C621.635 230.942 623.261 224.307 619.756 219.558C617.23 216.136 612.695 214.812 608.442 214.622C604.188 214.432 599.923 215.152 595.678 214.815C591.434 214.479 586.949 212.806 584.793 209.141C581.997 204.388 584.365 197.842 588.859 194.642C593.354 191.441 599.291 190.994 604.761 191.739C611.683 192.56 618.19 195.466 623.416 200.07C628.501 204.755 631.815 211.508 631.667 218.414C631.519 225.32 627.64 232.197 621.457 235.298" fill="#629CF5"/>
<path d="M613.942 184.761C608.256 183.013 605.634 175.508 608.176 170.139C610.719 164.769 617.218 161.957 623.12 162.705C629.022 163.453 634.222 167.233 637.809 171.972C641.396 176.71 643.559 182.358 645.363 188.018C647.166 193.678 648.666 199.46 651.129 204.866C655.038 213.173 661.067 220.306 668.612 225.549C676.157 230.793 684.951 233.961 694.111 234.737C698.103 235.026 702.247 234.819 705.885 233.153C709.524 231.487 712.575 228.128 712.983 224.152C715.054 238.274 706.825 253.283 693.793 259.151C680.76 265.02 664.044 261.245 654.811 250.347C645.788 239.698 644.391 224.663 644.608 210.717C644.668 206.893 644.809 202.996 643.75 199.32C642.692 195.644 640.188 192.149 636.539 190.981C633.596 190.039 630.408 190.718 627.39 191.386C624.372 192.054 621.168 192.697 618.246 191.69C615.324 190.683 612.971 187.366 614.148 184.513" fill="#629CF5"/>
<path d="M707.903 574.253H452.624C452.367 574.253 452.121 574.151 451.94 573.97C451.759 573.789 451.657 573.543 451.657 573.287C451.657 573.031 451.759 572.786 451.94 572.605C452.121 572.424 452.367 572.322 452.624 572.322H707.903C708.159 572.322 708.405 572.424 708.587 572.605C708.768 572.786 708.87 573.031 708.87 573.287C708.87 573.543 708.768 573.789 708.587 573.97C708.405 574.151 708.159 574.253 707.903 574.253Z" fill="#629CF5"/>
</g>
<defs>
<clipPath id="clip0_5_347">
<rect width="713.297" height="573.427" fill="white" transform="translate(0.00415039 0.826172)"/>
</clipPath>
</defs>
</svg>
