<svg width="223" height="60" viewBox="0 0 223 60" fill="none" xmlns="http://www.w3.org/2000/svg">
<path d="M82.688 38.944C82.752 39.072 82.784 39.2107 82.784 39.36C82.784 39.5093 82.7093 39.6587 82.56 39.808C82.432 39.936 82.272 40 82.08 40H75.52C74.8587 40 74.4 39.712 74.144 39.136L71.392 33.024H70.08V39.136C70.08 39.3707 69.9947 39.5733 69.824 39.744C69.6533 39.9147 69.4507 40 69.216 40H62.944C62.7093 40 62.5067 39.9147 62.336 39.744C62.1653 39.5733 62.08 39.3707 62.08 39.136V18.464C62.08 18.2293 62.1653 18.0267 62.336 17.856C62.5067 17.6853 62.7093 17.6 62.944 17.6H72.416C75.488 17.6 77.888 18.2933 79.616 19.68C81.344 21.0453 82.208 23.0187 82.208 25.6C82.208 28.16 81.056 30.176 78.752 31.648L82.688 38.944ZM70.08 23.552V26.944H72.416C72.8853 26.944 73.248 26.7947 73.504 26.496C73.76 26.176 73.888 25.7813 73.888 25.312C73.888 24.8427 73.76 24.4373 73.504 24.096C73.2693 23.7333 72.9067 23.552 72.416 23.552H70.08ZM100.806 33.568H91.27V33.728C91.27 35.0293 91.686 35.68 92.518 35.68C92.7527 35.68 93.0407 35.5093 93.382 35.168C93.7233 34.8267 94.0967 34.656 94.502 34.656H100.55C101.019 34.656 101.254 34.8907 101.254 35.36C101.254 36.4053 100.465 37.4933 98.886 38.624C97.3287 39.7547 95.206 40.32 92.518 40.32C89.8513 40.32 87.6647 39.6267 85.958 38.24C84.2727 36.832 83.43 34.9013 83.43 32.448V30.912C83.43 28.5867 84.294 26.6987 86.022 25.248C87.75 23.776 90.0113 23.04 92.806 23.04C95.622 23.04 97.798 23.8613 99.334 25.504C100.891 27.1467 101.67 29.2267 101.67 31.744V32.704C101.67 32.9387 101.585 33.1413 101.414 33.312C101.243 33.4827 101.041 33.568 100.806 33.568ZM93.83 29.44C93.83 28.16 93.4033 27.52 92.55 27.52C91.6967 27.52 91.27 28.16 91.27 29.44V29.568H93.83V29.44ZM102.459 35.232C102.459 32.352 104.795 30.5067 109.467 29.696L112.859 29.152C112.859 28.512 112.805 28.0853 112.699 27.872C112.592 27.6373 112.336 27.52 111.931 27.52C111.547 27.52 111.163 27.6907 110.779 28.032C110.395 28.3733 110.032 28.544 109.691 28.544H104.251C103.781 28.544 103.547 28.32 103.547 27.872C103.547 27.4027 103.707 26.912 104.027 26.4C104.368 25.8667 104.848 25.344 105.467 24.832C106.107 24.32 106.992 23.8933 108.123 23.552C109.275 23.2107 110.555 23.04 111.963 23.04C114.821 23.04 116.965 23.6373 118.395 24.832C119.824 26.0267 120.539 27.7333 120.539 29.952V39.136C120.539 39.3707 120.453 39.5733 120.283 39.744C120.112 39.9147 119.909 40 119.675 40H114.075C113.84 40 113.637 39.9147 113.467 39.744C113.296 39.5733 113.211 39.3707 113.211 39.136V38.24C112.208 39.6267 110.747 40.32 108.827 40.32C106.907 40.32 105.36 39.84 104.187 38.88C103.035 37.8987 102.459 36.6827 102.459 35.232ZM110.875 35.584C112.261 35.584 112.955 34.752 112.955 33.088L111.067 33.504C110.128 33.7173 109.659 34.112 109.659 34.688C109.659 34.944 109.765 35.1573 109.979 35.328C110.192 35.4987 110.491 35.584 110.875 35.584ZM121.644 32.928V30.4C121.644 28.0107 122.284 26.1867 123.564 24.928C124.844 23.6693 126.401 23.04 128.236 23.04C130.092 23.04 131.574 23.5413 132.684 24.544V18.144C132.684 17.9093 132.769 17.7067 132.94 17.536C133.11 17.3653 133.313 17.28 133.548 17.28H139.468C139.702 17.28 139.905 17.3653 140.076 17.536C140.246 17.7067 140.332 17.9093 140.332 18.144V39.136C140.332 39.3707 140.246 39.5733 140.076 39.744C139.905 39.9147 139.702 40 139.468 40H134.028C133.793 40 133.59 39.9147 133.42 39.744C133.249 39.5733 133.164 39.3707 133.164 39.136V38.176C132.054 39.6053 130.486 40.32 128.46 40.32C126.433 40.32 124.79 39.7227 123.532 38.528C122.273 37.312 121.644 35.4453 121.644 32.928ZM132.684 32.736V30.368C132.62 29.3013 132.086 28.768 131.084 28.768C130.017 28.768 129.484 29.3867 129.484 30.624V32.736C129.484 33.9733 130.017 34.592 131.084 34.592C132.15 34.592 132.684 33.9733 132.684 32.736ZM160.522 17.6H165.578C165.813 17.6 166.015 17.6853 166.186 17.856C166.357 18.0267 166.442 18.2293 166.442 18.464V39.136C166.442 39.3707 166.357 39.5733 166.186 39.744C166.015 39.9147 165.813 40 165.578 40H159.786C159.551 40 159.349 39.9147 159.178 39.744C159.007 39.5733 158.922 39.3707 158.922 39.136V30.368L156.81 33.824C156.469 34.3573 156.074 34.624 155.626 34.624H153.386C152.938 34.624 152.543 34.3573 152.202 33.824L150.09 30.368V39.136C150.09 39.3707 150.005 39.5733 149.834 39.744C149.663 39.9147 149.461 40 149.226 40H143.434C143.199 40 142.997 39.9147 142.826 39.744C142.655 39.5733 142.57 39.3707 142.57 39.136V18.464C142.57 18.2293 142.655 18.0267 142.826 17.856C142.997 17.6853 143.199 17.6 143.434 17.6H148.49C149.087 17.6 149.546 17.888 149.866 18.464L154.506 26.144L159.146 18.464C159.466 17.888 159.925 17.6 160.522 17.6ZM168.201 32.768V30.592C168.201 28.16 169.065 26.2933 170.793 24.992C172.521 23.6907 174.751 23.04 177.481 23.04C180.212 23.04 182.441 23.6907 184.169 24.992C185.897 26.2933 186.761 28.16 186.761 30.592V32.768C186.761 35.2213 185.929 37.0987 184.265 38.4C182.601 39.68 180.34 40.32 177.481 40.32C174.623 40.32 172.361 39.68 170.697 38.4C169.033 37.0987 168.201 35.2213 168.201 32.768ZM178.921 33.024V30.336C178.921 29.5253 178.815 28.96 178.601 28.64C178.388 28.32 178.015 28.16 177.481 28.16C176.948 28.16 176.575 28.32 176.361 28.64C176.148 28.96 176.041 29.5253 176.041 30.336V33.024C176.041 33.8773 176.148 34.4533 176.361 34.752C176.575 35.0507 176.948 35.2 177.481 35.2C178.015 35.2 178.388 35.04 178.601 34.72C178.815 34.4 178.921 33.8347 178.921 33.024ZM195.062 24.224V25.344C196.555 24.0213 198.219 23.36 200.054 23.36H201.59C201.824 23.36 202.027 23.4453 202.198 23.616C202.368 23.7867 202.454 23.9893 202.454 24.224V29.216C202.454 29.4507 202.368 29.6533 202.198 29.824C202.027 29.9947 201.824 30.08 201.59 30.08H197.462C196.886 30.08 196.427 30.2187 196.086 30.496C195.766 30.752 195.584 31.104 195.542 31.552V39.136C195.542 39.3707 195.456 39.5733 195.286 39.744C195.115 39.9147 194.912 40 194.678 40H188.598C188.363 40 188.16 39.9147 187.99 39.744C187.819 39.5733 187.734 39.3707 187.734 39.136V24.224C187.734 23.9893 187.819 23.7867 187.99 23.616C188.16 23.4453 188.363 23.36 188.598 23.36H194.198C194.432 23.36 194.635 23.4453 194.806 23.616C194.976 23.7867 195.062 23.9893 195.062 24.224ZM220.478 33.568H210.942V33.728C210.942 35.0293 211.358 35.68 212.19 35.68C212.425 35.68 212.713 35.5093 213.054 35.168C213.396 34.8267 213.769 34.656 214.174 34.656H220.222C220.692 34.656 220.926 34.8907 220.926 35.36C220.926 36.4053 220.137 37.4933 218.558 38.624C217.001 39.7547 214.878 40.32 212.19 40.32C209.524 40.32 207.337 39.6267 205.63 38.24C203.945 36.832 203.102 34.9013 203.102 32.448V30.912C203.102 28.5867 203.966 26.6987 205.694 25.248C207.422 23.776 209.684 23.04 212.478 23.04C215.294 23.04 217.47 23.8613 219.006 25.504C220.564 27.1467 221.342 29.2267 221.342 31.744V32.704C221.342 32.9387 221.257 33.1413 221.086 33.312C220.916 33.4827 220.713 33.568 220.478 33.568ZM213.502 29.44C213.502 28.16 213.076 27.52 212.222 27.52C211.369 27.52 210.942 28.16 210.942 29.44V29.568H213.502V29.44Z" fill="white"/>
<path d="M23.2781 3.89993C18.7622 1.31284 12.4502 0.0455417 3.99967 0.00054879C3.2027 -0.0124435 2.42137 0.26641 1.75986 0.799923C1.21689 1.2403 0.772423 1.83402 0.465554 2.52887C0.158684 3.22372 -0.00118535 3.99841 6.61677e-06 4.78479V47.693C6.61677e-06 50.5936 1.71986 52.7817 3.99967 52.7817C12.8827 52.7817 21.7932 53.7775 27.1302 59.8306C27.2032 59.9138 27.295 59.9694 27.3941 59.9905C27.4933 60.0116 27.5954 59.9973 27.6878 59.9494C27.7802 59.9015 27.8588 59.822 27.9139 59.7209C27.969 59.6198 27.9981 59.5015 27.9977 59.3807V8.82215C27.9979 8.48104 27.9371 8.14385 27.8193 7.83336C27.7016 7.52288 27.5297 7.24634 27.3152 7.02244C26.0927 5.76839 24.7347 4.71807 23.2781 3.89993ZM58.2351 0.795423C57.5733 0.263238 56.7919 -0.0140582 55.9953 0.00054879C47.5448 0.0455417 41.2328 1.30684 36.7169 3.89993C35.2603 4.71659 33.902 5.76484 32.6785 7.01644C32.4645 7.24073 32.293 7.51738 32.1755 7.8278C32.058 8.13822 31.9973 8.47522 31.9973 8.81616V59.3777C31.9973 59.4938 32.0258 59.6073 32.0793 59.704C32.1328 59.8007 32.2089 59.8763 32.2981 59.9213C32.3873 59.9663 32.4855 59.9788 32.5806 59.957C32.6756 59.9353 32.7631 59.8803 32.8323 59.7991C36.0407 55.9747 41.6715 52.7772 56.0003 52.7787C57.0611 52.7787 58.0784 52.2731 58.8285 51.373C59.5786 50.473 60 49.2523 60 47.9795V4.78629C60.0015 3.99836 59.8412 3.22211 59.5334 2.52608C59.2256 1.83006 58.7797 1.23568 58.2351 0.795423Z" fill="white"/>
</svg>
