<svg width="80" height="80" viewBox="0 0 80 80" fill="none" xmlns="http://www.w3.org/2000/svg">
<path d="M20.6667 8.13336L60.3334 47.8L67.4 40.7334L72.1 45.4334L63.8667 53.6667L74.4667 64.2667C75.7667 65.5667 75.7667 67.6667 74.4667 68.9667L72.1 71.3334C71.7916 71.6424 71.4253 71.8875 71.0221 72.0548C70.6189 72.2221 70.1866 72.3082 69.75 72.3082C69.3135 72.3082 68.8812 72.2221 68.4779 72.0548C68.0747 71.8875 67.7084 71.6424 67.4 71.3334L56.6667 60.7667L48.5334 69L43.8333 64.3L50.9 57.2334L11.2333 17.5667V8.13336H20.6667ZM52.9667 33.3334L68.7667 17.5334V8.13336H59.3333L43.5334 23.9334L52.9667 33.3334ZM36.4667 50L27.0333 40.4334L19.6667 47.8L12.6 40.7334L7.90001 45.4334L16.1333 53.6667L5.53335 64.3C5.22433 64.6084 4.97918 64.9747 4.8119 65.3779C4.64463 65.7812 4.55853 66.2135 4.55853 66.65C4.55853 67.0866 4.64463 67.5189 4.8119 67.9221C4.97918 68.3254 5.22433 68.6917 5.53335 69L7.90001 71.3667C9.20001 72.6667 11.3 72.6667 12.6 71.3667L23.3333 60.7667L31.4667 69L36.1667 64.3L29.1 57.2334L36.4667 50Z" fill="white"/>
</svg>
