<svg width="80" height="80" viewBox="0 0 80 80" fill="none" xmlns="http://www.w3.org/2000/svg">
<g clip-path="url(#clip0_28_35)">
<path d="M29.3333 8.00533C26.8459 7.94585 24.3716 8.38439 22.0561 9.29515C19.7406 10.2059 17.6307 11.5705 15.8503 13.3086C14.07 15.0468 12.6553 17.1234 11.6894 19.4163C10.7235 21.7092 10.2259 24.1721 10.2259 26.6601C10.2259 29.1481 10.7235 31.611 11.6894 33.9039C12.6553 36.1968 14.07 38.2734 15.8503 40.0116C17.6307 41.7497 19.7406 43.1143 22.0561 44.025C24.3716 44.9358 26.8459 45.3743 29.3333 45.3148C31.8208 45.3743 34.2951 44.9358 36.6106 44.025C38.926 43.1143 41.036 41.7497 42.8163 40.0116C44.5967 38.2734 46.0114 36.1968 46.9773 33.9039C47.9432 31.611 48.4408 29.1481 48.4408 26.6601C48.4408 24.1721 47.9432 21.7092 46.9773 19.4163C46.0114 17.1234 44.5967 15.0468 42.8163 13.3086C41.036 11.5705 38.926 10.2059 36.6106 9.29515C34.2951 8.38439 31.8208 7.94585 29.3333 8.00533ZM18.6667 55.9701C13.716 55.9701 8.96802 57.9367 5.46734 61.4371C1.96666 64.9376 0 69.6852 0 74.6356L0 87.952H58.6667V74.6356C58.6667 69.6852 56.7 64.9376 53.1993 61.4371C49.6986 57.9367 44.9507 55.9701 40 55.9701H18.6667ZM66.6667 61.3351H64V88H80V74.6676C80 71.1316 78.5952 67.7404 76.0948 65.2401C73.5943 62.7398 70.2029 61.3351 66.6667 61.3351Z" fill="white"/>
<path d="M61.3333 21.3333C57.7971 21.3333 54.4057 22.7381 51.9052 25.2386C49.4048 27.739 48 31.1304 48 34.6666C48 38.2029 49.4048 41.5942 51.9052 44.0947C54.4057 46.5952 57.7971 48 61.3333 48C64.8696 48 68.2609 46.5952 70.7614 44.0947C73.2619 41.5942 74.6667 38.2029 74.6667 34.6666C74.6667 31.1304 73.2619 27.739 70.7614 25.2386C68.2609 22.7381 64.8696 21.3333 61.3333 21.3333Z" fill="white"/>
</g>
<defs>
<clipPath id="clip0_28_35">
<rect width="80" height="80" fill="white"/>
</clipPath>
</defs>
</svg>
